<?xml version="1.0" encoding="UTF-8" standalone="no"?>
<svg width="178px" height="83px" viewBox="0 0 178 83" version="1.1" xmlns="http://www.w3.org/2000/svg" xmlns:xlink="http://www.w3.org/1999/xlink">
    <!-- Generator: Sketch 47.1 (45422) - http://www.bohemiancoding.com/sketch -->
    <title>CFPLogo Copy</title>
    <desc>Created with Sketch.</desc>
    <defs></defs>
    <g id="Symbols" stroke="none" stroke-width="1" fill="none" fill-rule="evenodd">
        <g id="CFPLogo-Copy">
            <g id="cfpdark1">
                <g id="Contract" transform="translate(87.000000, 12.000000)" fill-rule="nonzero" fill="#000000">
                    <path d="M84.8541667,5.00370066 L83.0069444,5.00370066 L83.0069444,6.83552632 L84.8541667,6.83552632 L84.8541667,12.8367599 C84.8541667,13.5953947 84.9236111,14.2245066 85.0902778,14.7302632 C85.2569444,15.2360197 85.4930556,15.6369243 85.8263889,15.9514803 C86.1111111,16.2290296 86.4930556,16.4572368 86.9166667,16.6052632 C87.3680556,16.7532895 87.8680556,16.8396382 88.4097222,16.8396382 C88.8888889,16.8396382 89.2916667,16.8149671 89.6458333,16.7717928 C90,16.7101151 90.3055556,16.6484375 90.5486111,16.5620888 L90.4513889,14.6870888 C90.2847222,14.7302632 90.1180556,14.7734375 89.9305556,14.7919408 C89.7361111,14.8166118 89.5,14.8351151 89.2430556,14.8351151 C88.6736111,14.8351151 88.2430556,14.6685855 87.9861111,14.3108553 C87.7013889,13.953125 87.5833333,13.4226974 87.5833333,12.7072368 L87.5833333,6.83552632 L90.6875,6.83552632 L90.6875,5.00370066 L87.5833333,5.00370066 L87.5833333,2.14185855 L84.8541667,2.89432566 L84.8541667,5.00370066 Z" id="Shape"></path>
                    <path d="M81.5461648,14.340332 C81.2585227,14.4672852 80.9325284,14.5751953 80.5809659,14.6640625 C80.2102273,14.7529297 79.7755682,14.8164063 79.2769886,14.8164063 C78.7528409,14.8164063 78.2734375,14.7084961 77.8132102,14.5371094 C77.3785511,14.340332 77.0014205,14.0610352 76.6754261,13.7119141 C76.3494318,13.34375 76.087358,12.9121094 75.9147727,12.3916016 C75.7166193,11.8710938 75.6271307,11.2871094 75.6271307,10.6333008 C75.6271307,10.0493164 75.7166193,9.484375 75.8700284,8.98925781 C76.0234375,8.46875 76.2599432,8.01171875 76.5923295,7.62451172 C76.8927557,7.23095703 77.2634943,6.92626953 77.7237216,6.71044922 C78.1839489,6.49462891 78.7080966,6.38671875 79.2961648,6.38671875 C79.6477273,6.38671875 79.9481534,6.40576172 80.2102273,6.45019531 C80.4978693,6.51367187 80.734375,6.55810547 80.9325284,6.64697266 C81.1306818,6.71044922 81.303267,6.77392578 81.4566761,6.86279297 L81.9552557,4.93310547 C81.7826705,4.85058594 81.5653409,4.76171875 81.2840909,4.67285156 C81.022017,4.59033203 80.7151989,4.52050781 80.3636364,4.48242187 C80.037642,4.41259766 79.6669034,4.39355469 79.2769886,4.39355469 C78.3117898,4.39355469 77.4424716,4.56494141 76.6754261,4.86962891 C75.9147727,5.19335937 75.256392,5.63134766 74.7130682,6.21533203 C74.1889205,6.77392578 73.7734375,7.44677734 73.4921875,8.22753906 C73.2045455,8.98925781 73.0575284,9.83349609 73.0575284,10.7412109 C73.0575284,11.6743164 73.1853693,12.5185547 73.4666193,13.2548828 C73.7286932,14.0166016 74.125,14.6450195 74.6235795,15.1845703 C75.1285511,15.7050781 75.7357955,16.1176758 76.4389205,16.3969727 C77.1356534,16.6826172 77.921875,16.8349609 78.7911932,16.8349609 C79.2514205,16.8349609 79.6860795,16.7905273 80.1015625,16.7207031 C80.4978693,16.6826172 80.8430398,16.59375 81.149858,16.5048828 C81.4566761,16.3969727 81.6995739,16.3144531 81.8913352,16.2255859 L81.5461648,14.340332 Z" id="Shape"></path>
                    <path d="M69.7851562,9.24951172 C69.7851562,8.59570312 69.7135417,7.99267578 69.5703125,7.42773437 C69.3984375,6.84375 69.1263021,6.32324219 68.7395833,5.86621094 C68.3671875,5.40917969 67.858724,5.06640625 67.1998698,4.78076172 C66.5338542,4.52050781 65.703125,4.39355469 64.7291667,4.39355469 C64.1132812,4.39355469 63.5546875,4.43798828 63.0175781,4.52050781 C62.4804687,4.609375 61.9648437,4.74267578 61.5279948,4.88867187 C61.0839844,5.04101562 60.6901042,5.19335937 60.375,5.39013672 L60.9622396,7.05957031 C61.2558594,6.88818359 61.5709635,6.73583984 61.9147135,6.62792969 C62.2799479,6.49462891 62.6523437,6.40576172 63.0390625,6.34228516 C63.4329427,6.27880859 63.8483073,6.234375 64.235026,6.234375 C64.7792969,6.234375 65.2161458,6.29785156 65.5598958,6.43115234 C65.9036458,6.5390625 66.1686198,6.71044922 66.3619792,6.90722656 C66.5625,7.12304687 66.7057292,7.33886719 66.7845052,7.58007812 C66.8561198,7.81494141 66.90625,8.05615234 66.9277344,8.27197266 C66.9492187,8.51318359 66.9492187,8.72900391 66.9492187,8.90039062 C65.8033854,8.90039062 64.750651,8.98925781 63.8196615,9.1796875 C62.8958333,9.35742188 62.1080729,9.63671875 61.4492187,10.0048828 C60.7903646,10.3730469 60.3033854,10.8300781 59.9596354,11.3950195 C59.594401,11.9536133 59.422526,12.6074219 59.422526,13.34375 C59.422526,13.8007813 59.5227865,14.2514648 59.6875,14.6640625 C59.859375,15.0766602 60.1315104,15.4448242 60.4466146,15.7685547 C60.7903646,16.0922852 61.2057292,16.3525391 61.6927083,16.5493164 C62.186849,16.7207031 62.7454427,16.8349609 63.3828125,16.8349609 C63.9414062,16.8349609 64.4570312,16.7651367 64.9440104,16.612793 C65.4095052,16.4858398 65.8535156,16.2890625 66.21875,16.0288086 C66.5839844,15.7939453 66.90625,15.5083008 67.1497396,15.2099609 L67.2213542,15.2099609 L67.4147135,16.59375 L69.9856771,16.59375 C69.9140625,16.206543 69.8352865,15.7495117 69.8138021,15.2734375 C69.7851562,14.7719727 69.7851562,14.2768555 69.7851562,13.7563477 L69.7851562,9.24951172 Z M67.0279948,12.5629883 C67.0279948,13.0200195 66.90625,13.4516602 66.6341146,13.8007813 C66.390625,14.1689453 66.046875,14.4482422 65.6315104,14.6640625 C65.2161458,14.8798828 64.7291667,14.987793 64.2135417,14.987793 C63.8697917,14.987793 63.5260417,14.9243164 63.2324219,14.7973633 C62.9459635,14.6450195 62.6953125,14.4482422 62.5234375,14.1689453 C62.3300781,13.8833008 62.2369792,13.5151367 62.2369792,13.0834961 C62.2369792,12.6518555 62.3300781,12.3027344 62.5234375,11.9980469 C62.6953125,11.71875 62.9674479,11.4775391 63.2825521,11.2871094 C63.6048177,11.090332 63.9700521,10.9570313 64.3854167,10.8491211 C64.8007812,10.7412109 65.2161458,10.6777344 65.6816406,10.6333008 C66.1184896,10.6142578 66.5839844,10.5888672 67.0279948,10.5888672 L67.0279948,12.5629883 Z" id="Shape"></path>
                    <path d="M58.8769531,4.45703125 C58.7607422,4.43798828 58.6445312,4.41259766 58.5556641,4.41259766 C58.4326172,4.39355469 58.3164062,4.39355469 58.2001953,4.39355469 C57.7353516,4.39355469 57.2705078,4.50146484 56.8466797,4.69824219 C56.4023437,4.88867187 56.0332031,5.17431641 55.6845703,5.51708984 C55.3291016,5.88525391 55.0761719,6.32324219 54.8642578,6.84375 L54.7685547,6.84375 L54.6796875,4.65380859 L52.3212891,4.65380859 C52.3691406,5.19335937 52.3896484,5.77734375 52.3896484,6.36767578 C52.4169922,6.95166016 52.4169922,7.59912109 52.4169922,8.29101562 L52.4169922,16.59375 L55.1240234,16.59375 L55.1240234,10.2651367 C55.1240234,9.57324219 55.2402344,8.96386719 55.4931641,8.44335937 C55.7255859,7.92285156 56.0810547,7.51660156 56.4980469,7.23095703 C56.9423828,6.95166016 57.4755859,6.79931641 58.0839844,6.79931641 C58.2480469,6.79931641 58.3916016,6.79931641 58.5078125,6.81835937 C58.6445312,6.81835937 58.7607422,6.84375 58.8769531,6.86279297 L58.8769531,4.45703125 Z" id="Shape"></path>
                    <path d="M11.424569,15.037064 C11.1788793,15.1482558 10.8943966,15.2594477 10.5646552,15.3510174 C10.2284483,15.4360465 9.8987069,15.5014535 9.5237069,15.5472384 C9.1487069,15.619186 8.7737069,15.6388081 8.37931034,15.6388081 C7.20905172,15.6388081 6.21336207,15.3706395 5.35344828,14.8800872 C4.51293103,14.3633721 3.87284483,13.630814 3.40732759,12.6497093 C2.96767241,11.6882267 2.72844828,10.5043605 2.72844828,9.09811047 C2.72844828,7.97965116 2.88362069,7.0181686 3.16810345,6.16787791 C3.43318966,5.34375 3.82758621,4.65043605 4.35775862,4.09447674 C4.86853448,3.53851744 5.46336207,3.11337209 6.1487069,2.84520349 C6.85344828,2.55087209 7.60344828,2.42005814 8.41810345,2.42005814 C9.05818966,2.42005814 9.61422414,2.48546512 10.0991379,2.59665698 C10.6034483,2.73401163 11.0237069,2.86482558 11.3793103,3.04142442 L11.9288793,0.922238372 C11.7737069,0.830668605 11.5344828,0.745639535 11.2241379,0.634447674 C10.9137931,0.542877907 10.5193966,0.45130814 10.0344828,0.36627907 C9.54956897,0.300872093 8.97413793,0.255087209 8.33405172,0.255087209 C7.40301724,0.255087209 6.49784483,0.385901163 5.68318966,0.634447674 C4.84267241,0.876453488 4.07327586,1.25581395 3.38793103,1.74636628 C2.70258621,2.2434593 2.10775862,2.84520349 1.60344828,3.55813953 C1.11206897,4.27107558 0.717672414,5.12136628 0.452586207,6.05668605 C0.168103448,7.0181686 0.0323275862,8.07122093 0.0323275862,9.22892442 C0.0323275862,10.5893895 0.232758621,11.7994186 0.607758621,12.872093 C0.982758621,13.9447674 1.51293103,14.8343023 2.19827586,15.5734012 C2.90301724,16.3059593 3.71767241,16.8684593 4.69396552,17.2478198 C5.63793103,17.6271802 6.72413793,17.8299419 7.89439655,17.8299419 C8.50862069,17.8299419 9.05818966,17.784157 9.58836207,17.7122093 C10.0991379,17.6468023 10.5387931,17.5617733 10.9396552,17.4505814 C11.3146552,17.3328488 11.6185345,17.221657 11.8642241,17.1104651 L11.424569,15.037064 Z" id="Shape"></path>
                    <path d="M20.9799107,4.39355469 C20.1294643,4.39355469 19.3526786,4.52050781 18.6495536,4.80615234 C17.9129464,5.08544922 17.296875,5.49804687 16.7477679,6.03759766 C16.2254464,6.55810547 15.7901786,7.23095703 15.4888393,8.01171875 C15.1941964,8.79248047 15.0334821,9.68115234 15.0334821,10.6967773 C15.0334821,11.6552734 15.1941964,12.5185547 15.46875,13.2802734 C15.7633929,14.0356445 16.1785714,14.6894531 16.6808036,15.2099609 C17.203125,15.7241211 17.8258929,16.1367188 18.5089286,16.4223633 C19.21875,16.7016602 19.9754464,16.8349609 20.7924107,16.8349609 C21.3683036,16.8349609 21.9375,16.7651367 22.5133929,16.612793 C23.0558036,16.4414063 23.5848214,16.2255859 24.0870536,15.9018555 C24.5892857,15.578125 25.0446429,15.1655273 25.4397321,14.6640625 C25.828125,14.1689453 26.1227679,13.5786133 26.3504464,12.8867188 C26.578125,12.2138672 26.6919643,11.4140625 26.6919643,10.5253906 C26.6919643,9.61767578 26.5580357,8.7734375 26.2834821,8.01171875 C26.0290179,7.27539062 25.640625,6.62792969 25.1383929,6.08203125 C24.6361607,5.54248047 24.0401786,5.12988281 23.3303571,4.82519531 C22.6272321,4.54589844 21.8504464,4.39355469 20.9799107,4.39355469 Z M23.9732143,10.5888672 C23.9732143,11.1982422 23.90625,11.7631836 23.765625,12.2836914 C23.6049107,12.8041992 23.4040179,13.2548828 23.1495536,13.6674805 C22.875,14.0610352 22.5535714,14.3847656 22.1651786,14.6005859 C21.7767857,14.8164063 21.3415179,14.949707 20.8660714,14.949707 C20.3839286,14.949707 19.9486607,14.8164063 19.5602679,14.6005859 C19.171875,14.3847656 18.8504464,14.0610352 18.5758929,13.6674805 C18.3013393,13.2802734 18.1205357,12.8041992 17.9598214,12.3027344 C17.8258929,11.7822266 17.7522321,11.2172852 17.7522321,10.6333008 C17.7522321,10.2207031 17.7991071,9.80810547 17.8660714,9.40185547 C17.9397321,8.96386719 18.0535714,8.57666016 18.2142857,8.20849609 C18.375,7.84033203 18.5558036,7.51660156 18.8035714,7.21191406 C19.0580357,6.92626953 19.3526786,6.69140625 19.7008929,6.5390625 C20.0424107,6.36767578 20.4308036,6.27880859 20.8861607,6.27880859 C21.3214286,6.27880859 21.7299107,6.36767578 22.0513393,6.5390625 C22.3928571,6.71044922 22.6941964,6.92626953 22.9419643,7.23095703 C23.1763393,7.51660156 23.3772321,7.84033203 23.5379464,8.22753906 C23.6785714,8.59570313 23.7924107,8.98925781 23.859375,9.37646484 C23.953125,9.7890625 23.9732143,10.2016602 23.9732143,10.5888672 Z" id="Shape"></path>
                    <path d="M40.6394231,9.28759766 C40.6394231,8.37988281 40.4951923,7.59912109 40.2427885,6.97070312 C39.9759615,6.34228516 39.6298077,5.84716797 39.1899038,5.45361328 C38.7716346,5.08544922 38.2740385,4.80615234 37.7620192,4.62841797 C37.2139423,4.48242187 36.7019231,4.39355469 36.1610577,4.39355469 C35.6418269,4.39355469 35.1730769,4.45703125 34.7548077,4.56494141 C34.3149038,4.67285156 33.9182692,4.82519531 33.5721154,5.02197266 C33.2259615,5.21875 32.9302885,5.43457031 32.6634615,5.66943359 C32.4182692,5.9296875 32.2163462,6.17089844 32.0504808,6.43115234 L31.9711538,6.43115234 L31.8269231,4.65380859 L29.3389423,4.65380859 C29.3605769,4.97753906 29.3605769,5.32666016 29.3894231,5.66943359 C29.4110577,6.03759766 29.4110577,6.38671875 29.4399038,6.77392578 C29.4399038,7.16748047 29.4399038,7.58007812 29.4399038,8.01171875 L29.4399038,16.59375 L32.2956731,16.59375 L32.2956731,9.40185547 C32.2956731,8.91943359 32.3894231,8.48779297 32.5625,8.14501953 C32.7139423,7.77685547 32.9302885,7.47216797 33.2259615,7.21191406 C33.5,6.97070312 33.8173077,6.77392578 34.1634615,6.66601562 C34.5096154,6.5390625 34.8557692,6.47558594 35.2019231,6.47558594 C35.6923077,6.47558594 36.0817308,6.55810547 36.4278846,6.71044922 C36.7524038,6.88818359 37.0192308,7.10400391 37.2139423,7.40234375 C37.4158654,7.68798828 37.5600962,8.01171875 37.6610577,8.37988281 C37.7331731,8.7734375 37.7836538,9.16064453 37.7836538,9.59228516 L37.7836538,16.59375 L40.6394231,16.59375 L40.6394231,9.28759766 Z" id="Shape"></path>
                    <path d="M43.8541667,5.00370066 L42.0069444,5.00370066 L42.0069444,6.83552632 L43.8541667,6.83552632 L43.8541667,12.8367599 C43.8541667,13.5953947 43.9236111,14.2245066 44.0902778,14.7302632 C44.2569444,15.2360197 44.4930556,15.6369243 44.8263889,15.9514803 C45.1111111,16.2290296 45.4930556,16.4572368 45.9166667,16.6052632 C46.3680556,16.7532895 46.8680556,16.8396382 47.4097222,16.8396382 C47.8888889,16.8396382 48.2916667,16.8149671 48.6458333,16.7717928 C49,16.7101151 49.3055556,16.6484375 49.5486111,16.5620888 L49.4513889,14.6870888 C49.2847222,14.7302632 49.1180556,14.7734375 48.9305556,14.7919408 C48.7361111,14.8166118 48.5,14.8351151 48.2430556,14.8351151 C47.6736111,14.8351151 47.2430556,14.6685855 46.9861111,14.3108553 C46.7013889,13.953125 46.5833333,13.4226974 46.5833333,12.7072368 L46.5833333,6.83552632 L49.6875,6.83552632 L49.6875,5.00370066 L46.5833333,5.00370066 L46.5833333,2.14185855 L43.8541667,2.89432566 L43.8541667,5.00370066 Z" id="Shape"></path>
                </g>
                <path d="M33.2534054,34.0334548 C33.2534054,33.5218191 33.4358378,33.1301968 33.8007027,32.7891064 C34.1655676,32.448016 34.5912432,32.2774707 35.1385405,32.2774707 L45.4696216,32.2774707 C47.4763784,32.2774707 49.3007027,32.6185612 51.0642162,33.300742 C52.7669189,34.0334548 54.2804324,34.9430293 55.5574595,36.1368457 C56.8344865,37.3306622 57.8074595,38.7518723 58.598,40.3436277 C59.3277297,41.9922314 59.6925946,43.6976835 59.6925946,45.5168324 C59.6925946,47.3359814 59.3277297,49.035117 58.598,50.6268723 C57.8074595,52.2754761 56.8344865,53.6398378 55.5574595,54.8336543 C54.2804324,56.0274707 52.7669189,56.9938936 51.0642162,57.6760745 C49.3007027,58.3582553 47.4763784,58.6993457 45.4696216,58.6993457 L37.0236757,58.6993457 L37.0236757,67.0497447 C37.0236757,67.5613803 36.8412432,67.9593191 36.4763784,68.3004096 C36.1115135,68.6415 35.6858378,68.8120452 35.1385405,68.8120452 C34.5912432,68.8120452 34.1655676,68.6415 33.8007027,68.3004096 C33.4358378,67.9593191 33.2534054,67.5613803 33.2534054,67.0497447 L33.2534054,34.0334548 Z M37.0236757,35.7957553 L37.0236757,55.1747447 L45.4696216,55.1747447 C46.9290811,55.1747447 48.2669189,54.8905027 49.5439459,54.378867 C50.820973,53.8672314 51.9155676,53.1850505 52.8885405,52.3323245 C53.8007027,51.4795984 54.5844865,50.4563271 55.1317838,49.2625106 C55.6790811,48.0686941 55.9223243,46.8243457 55.9223243,45.5168324 C55.9223243,44.2093191 55.6790811,42.9586543 55.1317838,41.7648378 C54.5844865,40.5710213 53.8007027,39.54775 52.8885405,38.6381755 C51.9155676,37.7854495 50.820973,37.0464202 49.5439459,36.5347846 C48.2669189,36.0231489 46.9290811,35.7957553 45.4696216,35.7957553 L37.0236757,35.7957553 Z" id="Shape" fill="#F4B632" fill-rule="nonzero"></path>
                <g id="Finder" transform="translate(0.000000, 12.000000)">
                    <path d="M34.729008,5.18689404 C47.3863756,5.18689404 58.1657091,12.820838 62.248842,23.5086867 L68,23.5086867 C63.7085792,9.90924167 50.4366761,-6.39488462e-14 34.729008,-6.39488462e-14 C15.5493004,-6.39488462e-14 0,14.7738978 0,32.999182 C0,51.2261022 15.5493004,66 34.729008,66 C50.4366761,66 63.7085792,56.0907579 68,42.4913133 L62.248842,42.4913133 C58.1657091,53.179162 47.3863756,60.8131055 34.729008,60.8131055 C18.5634508,60.8131055 5.46024396,48.3603063 5.46024396,32.999182 C5.46024396,17.6396937 18.5634508,5.18689404 34.729008,5.18689404 Z" id="Shape-path" fill="#F4B632"></path>
                    <path d="M35.8674914,21.2067793 C35.8674914,20.6951436 35.6830718,20.3035213 35.3142325,19.9624309 C34.9453932,19.6213404 34.5150807,19.4507952 33.9618218,19.4507952 L12.3369111,19.4507952 C11.7836521,19.4507952 11.3533396,19.6213404 10.9845004,19.9624309 C10.6156611,20.3035213 10.4312414,20.6951436 10.4312414,21.2067793 C10.4312414,21.7184149 10.6156611,22.1163537 10.9845004,22.4574441 C11.3533396,22.7985346 11.7836521,22.9690798 12.3369111,22.9690798 L32.0561521,22.9690798 L32.0561521,37.8001968 L18.5388754,37.8001968 C17.9856164,37.8001968 17.5553039,37.970742 17.1864646,38.3118324 C16.8176254,38.6529229 16.6332057,39.0508617 16.6332057,39.5624973 C16.6332057,40.074133 16.8176254,40.4720718 17.1864646,40.8131622 C17.5553039,41.1542527 17.9856164,41.3247979 18.5388754,41.3247979 L32.0561521,41.3247979 L32.0561521,54.3936144 C32.0561521,54.90525 32.2405718,55.3031888 32.6094111,55.6442793 C32.9782504,55.9853697 33.4085629,56.1559149 33.9618218,56.1559149 C34.5150807,56.1559149 34.9453932,55.9853697 35.3142325,55.6442793 C35.6830718,55.3031888 35.8674914,54.90525 35.8674914,54.3936144 L35.8674914,21.2067793 Z" id="Shape-path" fill="#F4B632"></path>
                    <polygon id="Shape" fill="#000000" fill-rule="nonzero" points="90.0626604 40.3395185 90.0626604 32.7061273 96.2268257 32.7061273 96.2268257 30.5232569 90.0626604 30.5232569 90.0626604 25.139287 96.6951645 25.139287 96.6951645 22.9364514 87.3352755 22.9364514 87.3352755 40.3395185"></polygon>
                    <path d="M102.574267,24.3672963 C102.574267,24.0744722 102.505393,23.8016134 102.381421,23.5686852 C102.243675,23.342412 102.057717,23.1627245 101.823547,23.0296227 C101.58249,22.8898657 101.327659,22.8233148 100.997067,22.8233148 C100.694024,22.8233148 100.411643,22.8898657 100.177474,23.0296227 C99.9364173,23.1627245 99.7504592,23.342412 99.6127125,23.5686852 C99.4680785,23.8016134 99.3992051,24.0744722 99.3992051,24.3672963 C99.3992051,24.6401551 99.4680785,24.9130139 99.6127125,25.139287 C99.7297972,25.3655602 99.9157553,25.5452477 100.149925,25.6850046 C100.384094,25.8181065 100.666475,25.8913125 100.976405,25.8913125 C101.30011,25.8913125 101.58249,25.8181065 101.823547,25.6850046 C102.078379,25.5452477 102.243675,25.3655602 102.381421,25.139287 C102.505393,24.9130139 102.574267,24.6401551 102.574267,24.3672963 Z M102.340097,27.8212894 L99.6127125,27.8212894 L99.6127125,40.3395185 L102.340097,40.3395185 L102.340097,27.8212894 Z" id="Shape" fill="#000000" fill-rule="nonzero"></path>
                    <path d="M116.53985,32.6795069 C116.53985,31.7278287 116.402104,30.9092523 116.161047,30.2503981 C115.906216,29.591544 115.575623,29.0724468 115.155496,28.659831 C114.75603,28.2738356 114.280804,27.9810116 113.791804,27.794669 C113.268366,27.6416019 112.779365,27.5484306 112.262815,27.5484306 C111.766927,27.5484306 111.31925,27.6149815 110.919785,27.7281181 C110.499657,27.8412546 110.120854,28.0009769 109.790262,28.2072847 C109.459669,28.4135926 109.177289,28.6398657 108.922457,28.8861042 C108.688288,29.158963 108.495442,29.4118565 108.337034,29.6847153 L108.261273,29.6847153 L108.123526,27.8212894 L105.747396,27.8212894 C105.768058,28.1606991 105.768058,28.5267292 105.795607,28.8861042 C105.816269,29.2720995 105.816269,29.6381296 105.843818,30.0440903 C105.843818,30.456706 105.843818,30.889287 105.843818,31.3418333 L105.843818,40.3395185 L108.571203,40.3395185 L108.571203,32.7992986 C108.571203,32.2935116 108.660739,31.8409653 108.826035,31.4815903 C108.970669,31.0955949 109.177289,30.7761505 109.459669,30.5032917 C109.721388,30.2503981 110.024431,30.0440903 110.355023,29.9309537 C110.685615,29.7978519 111.016207,29.7313009 111.346799,29.7313009 C111.815138,29.7313009 112.187054,29.8178171 112.517646,29.9775394 C112.827577,30.1638819 113.082408,30.3901551 113.268366,30.7029444 C113.461211,31.0024236 113.598958,31.3418333 113.695381,31.7278287 C113.764254,32.1404444 113.812466,32.5464051 113.812466,32.9989514 L113.812466,40.3395185 L116.53985,40.3395185 L116.53985,32.6795069 Z" id="Shape" fill="#000000" fill-rule="nonzero"></path>
                    <path d="M130.788612,22.117875 L128.061227,22.117875 L128.061227,29.232169 L128.013016,29.232169 C127.827058,28.9127245 127.565339,28.6132454 127.241634,28.3670069 C126.931704,28.1141134 126.532239,27.9144606 126.084562,27.7747037 C125.636885,27.6149815 125.147884,27.5484306 124.583123,27.5484306 C123.853065,27.5484306 123.171219,27.6815324 122.510035,27.9810116 C121.8764,28.2738356 121.290976,28.7064167 120.795088,29.2720995 C120.2992,29.8444375 119.899735,30.5498773 119.617354,31.3617986 C119.334973,32.2069954 119.176564,33.1387083 119.176564,34.2035231 C119.176564,35.1818218 119.314311,36.0469838 119.57603,36.8389398 C119.830861,37.6109306 120.182115,38.2964051 120.657342,38.8421227 C121.12568,39.4078056 121.662893,39.8403866 122.303415,40.1332106 C122.93705,40.4326898 123.618896,40.592412 124.348953,40.592412 C124.955039,40.592412 125.5198,40.4992407 126.036351,40.2929329 C126.532239,40.1132454 126.979916,39.8403866 127.358719,39.5209421 C127.730635,39.1815324 128.040565,38.8155023 128.274735,38.3829213 L128.343608,38.3829213 L128.488242,40.3395185 L130.885035,40.3395185 C130.857485,40.0466944 130.857485,39.7006296 130.836823,39.3412546 C130.836823,38.9752245 130.809274,38.5892292 130.809274,38.1832685 C130.788612,37.7706528 130.788612,37.3846574 130.788612,36.998662 L130.788612,22.117875 Z M128.061227,35.201787 C128.061227,35.6343681 127.992354,36.0669491 127.84772,36.4529444 C127.709973,36.8389398 127.524015,37.1783495 127.262296,37.4778287 C127.000578,37.7972731 126.697535,38.0235463 126.346281,38.1832685 C125.995027,38.362956 125.595561,38.4561273 125.147884,38.4561273 C124.631334,38.4561273 124.183657,38.3429907 123.784192,38.1100625 C123.384726,37.9104097 123.054134,37.5909653 122.771754,37.2049699 C122.510035,36.8189745 122.303415,36.3398079 122.158781,35.8207106 C122.021034,35.2949583 121.945273,34.7292755 121.945273,34.1170069 C121.945273,33.4781181 122.021034,32.9124352 122.158781,32.3667176 C122.303415,31.821 122.510035,31.3617986 122.792416,30.955838 C123.054134,30.5498773 123.405388,30.2038125 123.804854,29.9775394 C124.204319,29.7512662 124.672658,29.6381296 125.196096,29.6381296 C125.568012,29.6381296 125.946815,29.7046806 126.298069,29.8644028 C126.628661,30.0041597 126.931704,30.2038125 127.193423,30.5032917 C127.475804,30.7761505 127.682424,31.1155602 127.827058,31.5215208 C127.992354,31.9075162 128.061227,32.3667176 128.061227,32.8858148 L128.061227,35.201787 Z" id="Shape" fill="#000000" fill-rule="nonzero"></path>
                    <path d="M143.301065,37.9769606 C142.87405,38.1566481 142.405711,38.2964051 141.889161,38.4095417 C141.372611,38.4960579 140.732089,38.5692639 140.029581,38.5692639 C139.51303,38.5692639 139.017142,38.4960579 138.569465,38.362956 C138.101127,38.2032338 137.701661,37.9769606 137.322858,37.6841366 C136.971604,37.3646921 136.668561,36.9786968 136.455053,36.4795648 C136.241546,35.9804329 136.124461,35.3881296 136.103799,34.6826898 L144.334165,34.6826898 C144.354827,34.5229676 144.382377,34.3432801 144.382377,34.1569375 C144.403039,33.97725 144.403039,33.7709421 144.403039,33.5712894 C144.403039,32.9523657 144.354827,32.3400972 144.217081,31.7544491 C144.099996,31.1621458 143.90715,30.6164282 143.652319,30.1172963 C143.3906,29.6181644 143.087557,29.158963 142.660543,28.7729676 C142.261077,28.3869722 141.792738,28.0941481 141.227977,27.867875 C140.663215,27.6615671 140.029581,27.5484306 139.299523,27.5484306 C138.383507,27.5484306 137.563914,27.7281181 136.854519,28.0675278 C136.124461,28.4135926 135.518376,28.8861042 135.022488,29.5050278 C134.505937,30.1172963 134.127134,30.8227361 133.872303,31.6346574 C133.610584,32.4332685 133.472837,33.3183958 133.472837,34.2501088 C133.472837,35.201787 133.610584,36.0669491 133.892965,36.8389398 C134.154683,37.6375509 134.554149,38.2964051 135.091361,38.8421227 C135.607911,39.4078056 136.269095,39.8403866 137.019815,40.1332106 C137.798084,40.4326898 138.665888,40.592412 139.630115,40.592412 C140.525469,40.592412 141.29685,40.519206 142.006246,40.3594838 C142.708754,40.2263819 143.273516,40.0466944 143.741854,39.8403866 L143.301065,37.9769606 Z M136.124461,32.7992986 C136.172673,32.4332685 136.241546,32.0472731 136.38618,31.6612778 C136.503265,31.2752824 136.689223,30.9092523 136.923392,30.5698426 C137.164449,30.2304329 137.467492,29.9575741 137.818746,29.7512662 C138.197549,29.5449583 138.617677,29.4318218 139.113565,29.4318218 C139.630115,29.4318218 140.077792,29.5449583 140.429046,29.7512662 C140.7803,29.9575741 141.062681,30.2304329 141.255526,30.5498773 C141.462146,30.889287 141.60678,31.248662 141.696316,31.6346574 C141.792738,32.0206528 141.820288,32.4133032 141.820288,32.7992986 L136.124461,32.7992986 Z" id="Shape" fill="#000000" fill-rule="nonzero"></path>
                    <path d="M153.548188,27.6149815 C153.431103,27.5950162 153.314018,27.5683958 153.224483,27.5683958 C153.100511,27.5484306 152.983426,27.5484306 152.866341,27.5484306 C152.398003,27.5484306 151.929664,27.6615671 151.502649,27.867875 C151.054972,28.0675278 150.683056,28.3670069 150.331802,28.7263819 C149.973661,29.1123773 149.718829,29.5715787 149.505322,30.1172963 L149.408899,30.1172963 L149.319364,27.8212894 L146.943233,27.8212894 C146.991444,28.3869722 147.012106,28.9992407 147.012106,29.6181644 C147.039656,30.2304329 147.039656,30.9092523 147.039656,31.6346574 L147.039656,40.3395185 L149.767041,40.3395185 L149.767041,33.7043912 C149.767041,32.9789861 149.884125,32.3400972 150.138957,31.7943796 C150.373126,31.248662 150.731267,30.8227361 151.151395,30.5232569 C151.599072,30.2304329 152.136284,30.0707106 152.749257,30.0707106 C152.914553,30.0707106 153.059187,30.0707106 153.176272,30.0906759 C153.314018,30.0906759 153.431103,30.1172963 153.548188,30.1372616 L153.548188,27.6149815 Z" id="Shape" fill="#000000" fill-rule="nonzero"></path>
                </g>
                <g id="Pro" transform="translate(87.000000, 57.000000)" fill-rule="nonzero" fill="#000000">
                    <path d="M0.561706708,17.5373304 L3.31575467,17.5373304 L3.31575467,10.9286348 C3.55401836,10.9738114 3.79228205,10.9931728 4.05857676,11.0125342 C4.31786372,11.0383495 4.58415843,11.0383495 4.87147641,11.0383495 C5.5372132,11.0383495 6.18192671,10.9738114 6.85467125,10.8640967 C7.49938477,10.7285668 8.12307502,10.5284989 8.69771098,10.2638929 C9.29337021,9.99928696 9.79792861,9.67014293 10.2534327,9.23128424 C10.7089368,8.81178696 11.0663324,8.282575 11.3256193,7.66946359 C11.5708908,7.04989837 11.7110459,6.3464337 11.7110459,5.52680054 C11.7110459,4.75879783 11.5708908,4.05533315 11.2835728,3.43576793 C10.9962548,2.81620272 10.589805,2.31280598 10.0572156,1.8933087 C9.51061063,1.42863478 8.81684283,1.09949076 7.97591215,0.880061413 C7.12096597,0.660632065 6.13988018,0.550917391 5.01163153,0.550917391 C4.07960003,0.550917391 3.23866935,0.596094022 2.50285501,0.634816848 C1.76003292,0.705808696 1.1153194,0.789708152 0.561706708,0.880061413 L0.561706708,17.5373304 Z M3.31575467,2.70648804 C3.50496407,2.66776522 3.74322776,2.64195 4.05857676,2.59677337 C4.36691801,2.57741196 4.75234457,2.55159674 5.17981766,2.55159674 C5.92263976,2.55159674 6.58837654,2.66776522 7.14198923,2.90655598 C7.71662519,3.12598533 8.14409829,3.48094457 8.45944729,3.91980326 C8.76778854,4.38447717 8.93597467,4.95886576 8.93597467,5.63651522 C8.93597467,6.36579511 8.76778854,6.95954511 8.45944729,7.46939565 C8.12307502,7.97279239 7.66757091,8.34711304 7.04388066,8.61171902 C6.44822143,8.876325 5.73343035,9.01185489 4.87147641,9.01185489 C4.55612741,9.01185489 4.26880943,9.01185489 4.00952247,8.98603967 C3.74322776,8.96667826 3.52598733,8.92150163 3.31575467,8.876325 L3.31575467,2.70648804 Z" id="Shape"></path>
                    <path d="M21.0398442,5.19765652 C20.9207123,5.17829511 20.8015805,5.15247989 20.7104797,5.15247989 C20.5843401,5.13311848 20.4652082,5.13311848 20.3460764,5.13311848 C19.869549,5.13311848 19.3930216,5.24283315 18.9585408,5.44290109 C18.5030366,5.63651522 18.1246178,5.92693641 17.7672223,6.27544185 C17.402819,6.6497625 17.1435321,7.095075 16.9262916,7.62428696 L16.8281831,7.62428696 L16.7370822,5.39772446 L14.3194065,5.39772446 C14.3684608,5.94629783 14.3894841,6.54004783 14.3894841,7.14025163 C14.4175151,7.73400163 14.4175151,8.39228967 14.4175151,9.09575435 L14.4175151,17.5373304 L17.1925863,17.5373304 L17.1925863,11.1028875 C17.1925863,10.3994228 17.3117182,9.77985761 17.5710051,9.25064565 C17.8092688,8.7214337 18.1736721,8.30839022 18.6011452,8.01796902 C19.0566493,7.73400163 19.6032543,7.57911033 20.2269445,7.57911033 C20.3951307,7.57911033 20.5422935,7.57911033 20.6614254,7.59847174 C20.8015805,7.59847174 20.9207123,7.62428696 21.0398442,7.64364837 L21.0398442,5.19765652 Z" id="Shape"></path>
                    <path d="M28.5798457,5.13311848 C27.6898607,5.13311848 26.8769611,5.26219457 26.1411467,5.55261576 C25.3702936,5.83658315 24.7255801,6.25608043 24.1509441,6.8046538 C23.6043392,7.33386576 23.1488351,8.01796902 22.8334861,8.81178696 C22.5251448,9.60560489 22.3569587,10.5091375 22.3569587,11.5417462 C22.3569587,12.5162707 22.5251448,13.393988 22.8124628,14.1684446 C23.120804,14.9364473 23.5552849,15.6011891 24.0808666,16.1304011 C24.6274715,16.6531592 25.2791928,17.0726565 25.9939839,17.3630777 C26.7368059,17.6470451 27.5286823,17.782575 28.3836285,17.782575 C28.9862955,17.782575 29.5819547,17.7115832 30.1846217,17.5566918 C30.7522499,17.3824391 31.3058626,17.1630098 31.8314443,16.8338658 C32.357026,16.5047217 32.8335533,16.0852245 33.2470109,15.5753739 C33.6534607,15.0719772 33.961802,14.4717734 34.2000657,13.7683087 C34.4383294,13.0842054 34.5574612,12.2710261 34.5574612,11.3674935 C34.5574612,10.4445995 34.4173061,9.58624348 34.1299881,8.81178696 C33.8636934,8.06314565 33.4572436,7.40485761 32.9316619,6.84983043 C32.4060802,6.30125707 31.78239,5.88175978 31.0395679,5.57197717 C30.3037536,5.28800978 29.4908539,5.13311848 28.5798457,5.13311848 Z M31.7123124,11.4320315 C31.7123124,12.0515967 31.6422349,12.6259853 31.495072,13.1551973 C31.3268859,13.6844092 31.1166532,14.1426293 30.8503585,14.5621266 C30.5630405,14.9622625 30.2266682,15.2914065 29.8202184,15.5108359 C29.4137686,15.7302652 28.9582645,15.8657951 28.4607138,15.8657951 C27.9561554,15.8657951 27.5006513,15.7302652 27.0942015,15.5108359 C26.6877517,15.2914065 26.3513794,14.9622625 26.0640614,14.5621266 C25.7767434,14.1684446 25.587534,13.6844092 25.4193479,13.1745587 C25.2791928,12.6453467 25.2021075,12.0709582 25.2021075,11.4772082 C25.2021075,11.0577109 25.2511618,10.6382136 25.3212393,10.2251701 C25.3983246,9.77985761 25.5174565,9.38617554 25.6856426,9.01185489 C25.8538287,8.63753424 26.0430381,8.30839022 26.3023251,7.99860761 C26.5686198,7.70818641 26.8769611,7.46939565 27.2413644,7.31450435 C27.5987599,7.14025163 28.0052097,7.04989837 28.4817371,7.04989837 C28.9372412,7.04989837 29.3647143,7.14025163 29.7010866,7.31450435 C30.0584821,7.48875707 30.3738311,7.70818641 30.6331181,8.01796902 C30.8783895,8.30839022 31.0886222,8.63753424 31.2568083,9.0312163 C31.4039712,9.40553696 31.523103,9.80567283 31.5931806,10.1993549 C31.6912892,10.6188522 31.7123124,11.0383495 31.7123124,11.4320315 Z" id="Shape"></path>
                </g>
                <polygon id="Shape" fill="#F4B632" fill-rule="nonzero" points="74 83 76 83 76 0 74 0"></polygon>
            </g>
        </g>
    </g>
</svg>